<?xml version="1.0" encoding="utf-8"?>
<?xml-stylesheet type="text/xsl" href="rss1.xsl"?>
<rss version="2.0" xmlns:atom="http://www.w3.org/2005/Atom" xmlns:content="http://purl.org/rss/1.0/modules/content/" xmlns:dc="http://purl.org/dc/elements/1.1/" xmlns:media="http://search.yahoo.com/mrss/">
<channel>
 <title>Getty</title>
 <link>http://www.gettyimg.com/</link>
 <atom:link href="http://www.gettyimg.com/" rel="self" type="application/rss+xml" />

 
                <item>
                <title><![CDATA[【MTV】Kenya Grace - Strangers (Official Lyric Video) [MTV 1080i HDTV PAL MP2 + DOLBY 5.1-STRGMR]]]></title>
                <link><![CDATA[https://sharemania.us/threads/kenya-grace-strangers-official-lyric-video-mtv-1080i-hdtv-pal-mp2-dolby-5-1-strgmr.246950/]]></link>
                <description><![CDATA[<article>
<blockquote class="messageText SelectQuoteContainer ugc baseHtml">
<img src="https://i.imgur.com/YCV8FXh.png" class="bbCodeImage LbImage" alt="[​IMG]" data-url="https://i.imgur.com/YCV8FXh.png" style=""> <br>
<br>
<div class="ToggleTriggerAnchor bbCodeSpoilerContainer">
<button type="button" class="button bbCodeSpoilerButton ToggleTrigger Tooltip JsOnly" data-target="> .SpoilerTarget"><span>Spoiler: <span class="SpoilerTitle">Mediainfo</span></span></button>
<div class="SpoilerTarget bbCodeSpoilerText">Video: MPEG4 Video (H264) 1920x1080 25fps [V: h264 high L4.0, yuv420p, 1920x1080]<br>
Audio: MPEG Audio 48000Hz stereo 256kbps [A: English [eng] (mp2, 48000 Hz, stereo, 256 kb/s)]<br>
Audio: Dolby AC3 48000Hz 6ch 384kbps [A: English [eng] (ac3, 48000 Hz, 5.1(side), 384 kb/s)]<br>
<br>
General<br>
ID : 1 (0x1)<br>
Format : MPEG-TS<br>
File size : 206 MiB<br>
Duration : 2 min 52 s<br>
Overall bit rate mode : Variable<br>
Overall bit rate : 9 976 kb/s<br>
Frame rate : 25.000 FPS<br>
Video<br>
ID : 256 (0x100)<br>
Menu ID : 1 (0x1)<br>
Format : AVC<br>
Format/Info : Advanced Video Codec<br>
Format profile : High@L4<br>
Format settings : CABAC / 4 Ref Frames<br>
Format settings, CABAC : Yes<br>
Format settings, Reference fra : 4 frames<br>
Codec ID : 27<br>
Duration : 2 min 52 s<br>
Bit rate : 8 836 kb/s<br>
Width : 1 920 pixels<br>
Height : 1 080 pixels<br>
Display aspect ratio : 16:9<br>
Frame rate : 25.000 FPS<br>
Standard : Component<br>
Color space : YUV<br>
Chroma subsampling : 4:2:0<br>
Bit depth : 8 bits<br>
Scan type : MBAFF<br>
Scan type, store method : Separated fields<br>
Scan order : Top Field First<br>
Bits/(Pixel*Frame) : 0.170<br>
Stream size : 182 MiB (89%)<br>
Color range : Limited<br>
Color primaries : BT.709<br>
Transfer characteristics : BT.709<br>
Matrix coefficients : BT.709<br>
Audio #1<br>
ID : 257 (0x101)<br>
Menu ID : 1 (0x1)<br>
Format : MPEG Audio<br>
Format version : Version 1<br>
Format profile : Layer 2<br>
Codec ID : 3<br>
Duration : 2 min 54 s<br>
Bit rate mode : Constant<br>
Bit rate : 256 kb/s<br>
Channel(s) : 2 channels<br>
Sampling rate : 48.0 kHz<br>
Frame rate : 41.667 FPS (1152 SPF)<br>
Compression mode : Lossy<br>
Delay relative to video : -1 s 329 ms<br>
Stream size : 5.32 MiB (3%)<br>
Language : English<br>
Audio #2<br>
ID : 258 (0x102)<br>
Menu ID : 1 (0x1)<br>
Format : AC-3<br>
Format/Info : Audio Coding 3<br>
Commercial name : Dolby Digital<br>
Codec ID : 129<br>
Duration : 2 min 54 s<br>
Bit rate mode : Constant<br>
Bit rate : 384 kb/s<br>
Channel(s) : 6 channels<br>
Channel layout : L R C LFE Ls Rs<br>
Sampling rate : 48.0 kHz<br>
Frame rate : 31.250 FPS (1536 SPF)<br>
Compression mode : Lossy<br>
Delay relative to video : -1 s 232 ms<br>
Stream size : 7.97 MiB (4%)<br>
Language : English<br>
Service kind : Complete Main<br>
Menu<br>
ID : 4096 (0x1000)<br>
Menu ID : 1 (0x1)<br>
Format : AVC / MPEG Audio / AC-3<br>
Duration : 2 min 52 s<br>
List : 256 (0x100) (AVC) / 257 (0x101) (MPEG Audio, English) / 258 (0x102) (AC-3, English)<br>
Language : / English / English<br>
Service name : Service01<br>
Service provider : FFmpeg<br>
Service type : digital television</div>
</div><br>
Download:<br>
<div class="bbCodeBlock bbCodeVfcHH HiddenContent">
<div class="attribution type">Hidden Content:</div>
<blockquote>You must either reply or click 'Like' to see the hidden information contained here.</blockquote>
</div>
<div class="messageTextEndMarker">&nbsp;</div>
</blockquote>
</article>]]></description>
                <author><![CDATA[stargamer]]></author>
                </item>

                
                <item>
                <title><![CDATA[【MTV】Kings Of Leon - Nowhere to Run [MTV 1080i HDTV PAL MP2 + DOLBY 5.1-STRGMR]]]></title>
                <link><![CDATA[https://sharemania.us/threads/kings-of-leon-nowhere-to-run-mtv-1080i-hdtv-pal-mp2-dolby-5-1-strgmr.246951/]]></link>
                <description><![CDATA[<article>
<blockquote class="messageText SelectQuoteContainer ugc baseHtml">
<img src="https://i.imgur.com/W6CxpmP.png" class="bbCodeImage LbImage" alt="[​IMG]" data-url="https://i.imgur.com/W6CxpmP.png" style=""> <br>
<br>
<div class="ToggleTriggerAnchor bbCodeSpoilerContainer">
<button type="button" class="button bbCodeSpoilerButton ToggleTrigger Tooltip JsOnly" data-target="> .SpoilerTarget"><span>Spoiler: <span class="SpoilerTitle">Mediainfo</span></span></button>
<div class="SpoilerTarget bbCodeSpoilerText">Video: MPEG4 Video (H264) 1920x1080 25fps [V: h264 high L4.0, yuv420p, 1920x1080]<br>
Audio: MPEG Audio 48000Hz stereo 256kbps [A: English [eng] (mp2, 48000 Hz, stereo, 256 kb/s)]<br>
Audio: Dolby AC3 48000Hz 6ch 384kbps [A: English [eng] (ac3, 48000 Hz, 5.1(side), 384 kb/s)]<br>
<br>
General<br>
ID : 1 (0x1)<br>
Format : MPEG-TS<br>
File size : 250 MiB<br>
Duration : 3 min 48 s<br>
Overall bit rate mode : Variable<br>
Overall bit rate : 9 169 kb/s<br>
Frame rate : 25.000 FPS<br>
Video<br>
ID : 256 (0x100)<br>
Menu ID : 1 (0x1)<br>
Format : AVC<br>
Format/Info : Advanced Video Codec<br>
Format profile : High@L4<br>
Format settings : CABAC / 4 Ref Frames<br>
Format settings, CABAC : Yes<br>
Format settings, Reference fra : 4 frames<br>
Codec ID : 27<br>
Duration : 3 min 48 s<br>
Bit rate : 8 069 kb/s<br>
Width : 1 920 pixels<br>
Height : 1 080 pixels<br>
Display aspect ratio : 16:9<br>
Frame rate : 25.000 FPS<br>
Standard : Component<br>
Color space : YUV<br>
Chroma subsampling : 4:2:0<br>
Bit depth : 8 bits<br>
Scan type : MBAFF<br>
Scan type, store method : Interleaved fields<br>
Scan order : Top Field First<br>
Bits/(Pixel*Frame) : 0.156<br>
Stream size : 220 MiB (88%)<br>
Color range : Limited<br>
Color primaries : BT.709<br>
Transfer characteristics : BT.709<br>
Matrix coefficients : BT.709<br>
Audio #1<br>
ID : 257 (0x101)<br>
Menu ID : 1 (0x1)<br>
Format : MPEG Audio<br>
Format version : Version 1<br>
Format profile : Layer 2<br>
Codec ID : 3<br>
Duration : 3 min 49 s<br>
Bit rate mode : Constant<br>
Bit rate : 256 kb/s<br>
Channel(s) : 2 channels<br>
Sampling rate : 48.0 kHz<br>
Frame rate : 41.667 FPS (1152 SPF)<br>
Compression mode : Lossy<br>
Delay relative to video : -1 s 361 ms<br>
Stream size : 7.00 MiB (3%)<br>
Language : English<br>
Audio #2<br>
ID : 258 (0x102)<br>
Menu ID : 1 (0x1)<br>
Format : AC-3<br>
Format/Info : Audio Coding 3<br>
Commercial name : Dolby Digital<br>
Codec ID : 129<br>
Duration : 3 min 49 s<br>
Bit rate mode : Constant<br>
Bit rate : 384 kb/s<br>
Channel(s) : 6 channels<br>
Channel layout : L R C LFE Ls Rs<br>
Sampling rate : 48.0 kHz<br>
Frame rate : 31.250 FPS (1536 SPF)<br>
Compression mode : Lossy<br>
Delay relative to video : -1 s 192 ms<br>
Stream size : 10.5 MiB (4%)<br>
Language : English<br>
Service kind : Complete Main<br>
Menu<br>
ID : 4096 (0x1000)<br>
Menu ID : 1 (0x1)<br>
Format : AVC / MPEG Audio / AC-3<br>
Duration : 3 min 48 s<br>
List : 256 (0x100) (AVC) / 257 (0x101) (MPEG Audio, English) / 258 (0x102) (AC-3, English)<br>
Language : / English / English<br>
Service name : Service01<br>
Service provider : FFmpeg<br>
Service type : digital television</div>
</div><br>
Download:<br>
<div class="bbCodeBlock bbCodeVfcHH HiddenContent">
<div class="attribution type">Hidden Content:</div>
<blockquote>You must either reply or click 'Like' to see the hidden information contained here.</blockquote>
</div>
<div class="messageTextEndMarker">&nbsp;</div>
</blockquote>
</article>]]></description>
                <author><![CDATA[stargamer]]></author>
                </item>

                
                <item>
                <title><![CDATA[【MTV】Muse - Feeling Good [MTV 1080i HDTV PAL MP2 + DOLBY 5.1-STRGMR]]]></title>
                <link><![CDATA[https://sharemania.us/threads/muse-feeling-good-mtv-1080i-hdtv-pal-mp2-dolby-5-1-strgmr.246952/]]></link>
                <description><![CDATA[<article>
<blockquote class="messageText SelectQuoteContainer ugc baseHtml">
<img src="https://i.imgur.com/hFjlQBy.png" class="bbCodeImage LbImage" alt="[​IMG]" data-url="https://i.imgur.com/hFjlQBy.png" style=""> <br>
<br>
<div class="ToggleTriggerAnchor bbCodeSpoilerContainer">
<button type="button" class="button bbCodeSpoilerButton ToggleTrigger Tooltip JsOnly" data-target="> .SpoilerTarget"><span>Spoiler: <span class="SpoilerTitle">Mediainfo</span></span></button>
<div class="SpoilerTarget bbCodeSpoilerText">Video: MPEG4 Video (H264) 1920x1080 25fps [V: h264 high L4.0, yuv420p, 1920x1080]<br>
Audio: MPEG Audio 48000Hz stereo 256kbps [A: English [eng] (mp2, 48000 Hz, stereo, 256 kb/s)]<br>
Audio: Dolby AC3 48000Hz 6ch 384kbps [A: English [eng] (ac3, 48000 Hz, 5.1(side), 384 kb/s)]<br>
<br>
General<br>
ID : 1 (0x1)<br>
Format : MPEG-TS<br>
File size : 252 MiB<br>
Duration : 3 min 40 s<br>
Overall bit rate mode : Variable<br>
Overall bit rate : 9 615 kb/s<br>
Frame rate : 25.000 FPS<br>
Video<br>
ID : 256 (0x100)<br>
Menu ID : 1 (0x1)<br>
Format : AVC<br>
Format/Info : Advanced Video Codec<br>
Format profile : High@L4<br>
Format settings : CABAC / 4 Ref Frames<br>
Format settings, CABAC : Yes<br>
Format settings, Reference fra : 4 frames<br>
Codec ID : 27<br>
Duration : 3 min 40 s<br>
Bit rate : 8 493 kb/s<br>
Width : 1 920 pixels<br>
Height : 1 080 pixels<br>
Display aspect ratio : 16:9<br>
Frame rate : 25.000 FPS<br>
Standard : Component<br>
Color space : YUV<br>
Chroma subsampling : 4:2:0<br>
Bit depth : 8 bits<br>
Scan type : MBAFF<br>
Scan type, store method : Separated fields<br>
Scan order : Top Field First<br>
Bits/(Pixel*Frame) : 0.164<br>
Stream size : 223 MiB (88%)<br>
Color range : Limited<br>
Color primaries : BT.709<br>
Transfer characteristics : BT.709<br>
Matrix coefficients : BT.709<br>
Audio #1<br>
ID : 257 (0x101)<br>
Menu ID : 1 (0x1)<br>
Format : MPEG Audio<br>
Format version : Version 1<br>
Format profile : Layer 2<br>
Codec ID : 3<br>
Duration : 3 min 41 s<br>
Bit rate mode : Constant<br>
Bit rate : 256 kb/s<br>
Channel(s) : 2 channels<br>
Sampling rate : 48.0 kHz<br>
Frame rate : 41.667 FPS (1152 SPF)<br>
Compression mode : Lossy<br>
Delay relative to video : -1 s 73 ms<br>
Stream size : 6.74 MiB (3%)<br>
Language : English<br>
Audio #2<br>
ID : 258 (0x102)<br>
Menu ID : 1 (0x1)<br>
Format : AC-3<br>
Format/Info : Audio Coding 3<br>
Commercial name : Dolby Digital<br>
Codec ID : 129<br>
Duration : 3 min 40 s<br>
Bit rate mode : Constant<br>
Bit rate : 384 kb/s<br>
Channel(s) : 6 channels<br>
Channel layout : L R C LFE Ls Rs<br>
Sampling rate : 48.0 kHz<br>
Frame rate : 31.250 FPS (1536 SPF)<br>
Compression mode : Lossy<br>
Delay relative to video : -1 s 48 ms<br>
Stream size : 10.1 MiB (4%)<br>
Language : English<br>
Service kind : Complete Main<br>
Menu<br>
ID : 4096 (0x1000)<br>
Menu ID : 1 (0x1)<br>
Format : AVC / MPEG Audio / AC-3<br>
Duration : 3 min 40 s<br>
List : 256 (0x100) (AVC) / 257 (0x101) (MPEG Audio, English) / 258 (0x102) (AC-3, English)<br>
Language : / English / English<br>
Service name : Service01<br>
Service provider : FFmpeg<br>
Service type : digital television</div>
</div><br>
Download:<br>
<div class="bbCodeBlock bbCodeVfcHH HiddenContent">
<div class="attribution type">Hidden Content:</div>
<blockquote>You must either reply or click 'Like' to see the hidden information contained here.</blockquote>
</div>
<div class="messageTextEndMarker">&nbsp;</div>
</blockquote>
</article>]]></description>
                <author><![CDATA[stargamer]]></author>
                </item>

                
                <item>
                <title><![CDATA[【MTV】Clean Bandit - Solo (feat. Demi Lovato) [MTV 1080i HDTV PAL MP2 + DOLBY 5.1-STRGMR]]]></title>
                <link><![CDATA[https://sharemania.us/threads/clean-bandit-solo-feat-demi-lovato-mtv-1080i-hdtv-pal-mp2-dolby-5-1-strgmr.246949/]]></link>
                <description><![CDATA[<article>
<blockquote class="messageText SelectQuoteContainer ugc baseHtml">
<img src="https://i.imgur.com/v69j3os.png" class="bbCodeImage LbImage" alt="[​IMG]" data-url="https://i.imgur.com/v69j3os.png" style=""> <br>
<br>
<div class="ToggleTriggerAnchor bbCodeSpoilerContainer">
<button type="button" class="button bbCodeSpoilerButton ToggleTrigger Tooltip JsOnly" data-target="> .SpoilerTarget"><span>Spoiler: <span class="SpoilerTitle">Mediainfo</span></span></button>
<div class="SpoilerTarget bbCodeSpoilerText">Video: MPEG4 Video (H264) 1920x1080 25fps [V: h264 high L4.0, yuv420p, 1920x1080]<br>
Audio: MPEG Audio 48000Hz stereo 256kbps [A: English [eng] (mp2, 48000 Hz, stereo, 256 kb/s)]<br>
Audio: Dolby AC3 48000Hz 6ch 384kbps [A: English [eng] (ac3, 48000 Hz, 5.1(side), 384 kb/s)]<br>
<br>
General<br>
ID : 1 (0x1)<br>
Format : MPEG-TS<br>
File size : 252 MiB<br>
Duration : 3 min 44 s<br>
Overall bit rate mode : Variable<br>
Overall bit rate : 9 416 kb/s<br>
Frame rate : 25.000 FPS<br>
Video<br>
ID : 256 (0x100)<br>
Menu ID : 1 (0x1)<br>
Format : AVC<br>
Format/Info : Advanced Video Codec<br>
Format profile : High@L4<br>
Format settings : CABAC / 4 Ref Frames<br>
Format settings, CABAC : Yes<br>
Format settings, Reference fra : 4 frames<br>
Codec ID : 27<br>
Duration : 3 min 44 s<br>
Bit rate : 8 304 kb/s<br>
Width : 1 920 pixels<br>
Height : 1 080 pixels<br>
Display aspect ratio : 16:9<br>
Frame rate : 25.000 FPS<br>
Standard : Component<br>
Color space : YUV<br>
Chroma subsampling : 4:2:0<br>
Bit depth : 8 bits<br>
Scan type : MBAFF<br>
Scan type, store method : Interleaved fields<br>
Scan order : Top Field First<br>
Bits/(Pixel*Frame) : 0.160<br>
Stream size : 222 MiB (88%)<br>
Color range : Limited<br>
Color primaries : BT.709<br>
Transfer characteristics : BT.709<br>
Matrix coefficients : BT.709<br>
Audio #1<br>
ID : 257 (0x101)<br>
Menu ID : 1 (0x1)<br>
Format : MPEG Audio<br>
Format version : Version 1<br>
Format profile : Layer 2<br>
Codec ID : 3<br>
Duration : 3 min 45 s<br>
Bit rate mode : Constant<br>
Bit rate : 256 kb/s<br>
Channel(s) : 2 channels<br>
Sampling rate : 48.0 kHz<br>
Frame rate : 41.667 FPS (1152 SPF)<br>
Compression mode : Lossy<br>
Delay relative to video : -1 s 289 ms<br>
Stream size : 6.88 MiB (3%)<br>
Language : English<br>
Audio #2<br>
ID : 258 (0x102)<br>
Menu ID : 1 (0x1)<br>
Format : AC-3<br>
Format/Info : Audio Coding 3<br>
Commercial name : Dolby Digital<br>
Codec ID : 129<br>
Duration : 3 min 45 s<br>
Bit rate mode : Constant<br>
Bit rate : 384 kb/s<br>
Channel(s) : 6 channels<br>
Channel layout : L R C LFE Ls Rs<br>
Sampling rate : 48.0 kHz<br>
Frame rate : 31.250 FPS (1536 SPF)<br>
Compression mode : Lossy<br>
Delay relative to video : -1 s 264 ms<br>
Stream size : 10.3 MiB (4%)<br>
Language : English<br>
Service kind : Complete Main<br>
Menu<br>
ID : 4096 (0x1000)<br>
Menu ID : 1 (0x1)<br>
Format : AVC / MPEG Audio / AC-3<br>
Duration : 3 min 44 s<br>
List : 256 (0x100) (AVC) / 257 (0x101) (MPEG Audio, English) / 258 (0x102) (AC-3, English)<br>
Language : / English / English<br>
Service name : Service01<br>
Service provider : FFmpeg<br>
Service type : digital television</div>
</div><br>
Download:<br>
<div class="bbCodeBlock bbCodeVfcHH HiddenContent">
<div class="attribution type">Hidden Content:</div>
<blockquote>You must either reply or click 'Like' to see the hidden information contained here.</blockquote>
</div>
<div class="messageTextEndMarker">&nbsp;</div>
</blockquote>
</article>]]></description>
                <author><![CDATA[stargamer]]></author>
                </item>

                
                <item>
                <title><![CDATA[【Requests】[REQ AUD] - Robyn - Body Talk Pt. 1 (Flac)]]></title>
                <link><![CDATA[https://sharemania.us/threads/robyn-body-talk-pt-1-flac.246953/]]></link>
                <description><![CDATA[<article>
<blockquote class="messageText SelectQuoteContainer ugc baseHtml">
Someone help me with this, i tried on bots but is geoblocked <img src="styles/default/xenforo/smilies/unhappy-48.png" class="mceSmilie" alt=":(" title="Frown    :(">(<br>
<br>
<a href="https://www.qobuz.com/us-en/album/body-talk-pt-1-robyn/rihw2xnywjmab" target="_blank" class="externalLink" rel="nofollow">https://www.qobuz.com/us-en/album/body-talk-pt-1-robyn/rihw2xnywjmab</a>
<div class="messageTextEndMarker">&nbsp;</div>
</blockquote>
</article>]]></description>
                <author><![CDATA[Audiophilic2]]></author>
                </item>

                </channel></rss>